<?xml version="1.0" encoding="UTF-8"?>
<svg version="1.1" xmlns="http://www.w3.org/2000/svg" width="2000" height="2000">
<path d="M0 0 C660 0 1320 0 2000 0 C2000 660 2000 1320 2000 2000 C1340 2000 680 2000 0 2000 C0 1340 0 680 0 0 Z " fill="#FEFEFE" transform="translate(0,0)"/>
<path d="M0 0 C0.99062439 0.00115814 1.98124878 0.00231628 3.00189209 0.00350952 C17.03188019 0.03592278 30.6949696 0.51324672 44.54785156 2.91552734 C46.8489908 3.29779669 49.14409301 3.59455158 51.4609375 3.86328125 C74.36554769 6.680078 97.8180361 14.19569971 118.9375 23.3125 C119.78779785 23.67923828 120.6380957 24.04597656 121.51416016 24.42382812 C145.34744532 34.88268948 167.37914702 49.03458355 186.34765625 66.8984375 C188.43421566 68.84337523 190.55090007 70.71325119 192.7109375 72.57421875 C197.16049643 76.45174367 201.33927233 80.56668015 205.5 84.75 C206.21607422 85.46220703 206.93214844 86.17441406 207.66992188 86.90820312 C212.29896396 91.54566931 216.67683776 96.33626747 220.9375 101.3125 C221.91090378 102.43017072 222.88483725 103.54738039 223.859375 104.6640625 C230.27802587 112.07450352 236.44754063 119.63659948 242.4453125 127.390625 C244.04824785 129.45513859 245.66382058 131.50932476 247.28125 133.5625 C253.27385892 141.1877107 259.1466233 148.87819761 264.8125 156.75 C265.62908081 157.88381104 265.62908081 157.88381104 266.4621582 159.04052734 C268.70420595 162.16430249 270.92652861 165.29654701 273.10546875 168.46484375 C277.08728727 174.18716851 281.46633248 178.99722063 286.44335938 183.83789062 C291.38133988 188.66378582 295.67715595 193.88092734 299.9375 199.3125 C300.81907781 200.40464363 301.70194681 201.49574596 302.5859375 202.5859375 C324.06351202 229.23403922 339.0348972 258.99159541 349.9375 291.3125 C350.28554687 292.34238037 350.28554687 292.34238037 350.640625 293.39306641 C354.28689333 304.43965805 356.19416336 316.01313589 358.37353516 327.41796875 C358.72777737 329.23610539 359.095286 331.05175924 359.48193359 332.86328125 C360.89017081 339.47841254 361.63714497 346.08696661 362.3125 352.8125 C363.4161905 363.33682151 364.82862227 373.77066928 366.57958984 384.20703125 C369.02489004 399.15620978 369.17265995 414.0781428 369.1875 429.1875 C369.18950409 430.17963501 369.19150818 431.17177002 369.193573 432.19396973 C369.20092359 447.04817281 368.86454605 461.69243581 365.9375 476.3125 C365.6075 476.6425 365.2775 476.9725 364.9375 477.3125 C364.86570036 478.83178038 364.85357993 480.35417482 364.875 481.875 C364.88853516 483.11443359 364.88853516 483.11443359 364.90234375 484.37890625 C364.91974609 485.33603516 364.91974609 485.33603516 364.9375 486.3125 C365.91847656 486.77398438 366.89945313 487.23546875 367.91015625 487.7109375 C395.79368076 501.08499872 420.11302579 521.7700745 438.60351562 546.52978516 C439.92469791 548.29539149 441.26556731 550.04454743 442.609375 551.79296875 C460.74018981 575.64289963 474.53254608 602.69998272 488.20825195 629.26269531 C493.35392498 639.21381837 498.82555541 648.96538953 504.41943359 658.67041016 C505.89311175 661.23524531 507.34838465 663.80978829 508.80078125 666.38671875 C509.67891664 667.9249195 510.55777791 669.46270617 511.4375 671 C511.82252686 671.68900391 512.20755371 672.37800781 512.60424805 673.08789062 C516.00178393 678.95264042 519.91991968 682.02273453 525.9375 684.9375 C526.7625 685.34226562 527.5875 685.74703125 528.4375 686.1640625 C529.2625 686.54304687 530.0875 686.92203125 530.9375 687.3125 C531.61594971 687.63307373 532.29439941 687.95364746 532.9934082 688.28393555 C549.26553006 693.96885547 568.29199701 692.75703479 585.25 692.625 C587.74487234 692.61632994 590.23974541 692.60786847 592.73461914 692.59960938 C607.10204717 692.52259485 621.37159557 692.07893203 635.69921875 691.03344727 C657.02183063 689.50901392 678.74731452 689.23510715 699.9375 692.3125 C700.64648438 692.40901855 701.35546875 692.50553711 702.0859375 692.60498047 C714.9328636 694.39613843 727.80267007 697.61184885 739.83984375 702.48828125 C742.31506039 703.46085241 744.30167292 703.46311869 746.9375 703.3125 C747.20820312 702.73628906 747.47890625 702.16007813 747.7578125 701.56640625 C748.9477711 699.29287607 750.31227718 697.32932437 751.8125 695.25 C757.56692427 686.59015564 759.36978258 678.73056423 759.56640625 668.37890625 C759.19977772 665.19764516 759.19977772 665.19764516 756.8515625 663.15625 C753.5454795 661.06446558 750.18777421 659.11363326 746.75 657.25 C740.70128189 653.91044981 734.75902316 650.43431251 728.875 646.8125 C728.11662842 646.34569824 727.35825684 645.87889648 726.5769043 645.39794922 C725.07409238 644.47237311 723.57140433 643.54659587 722.06884766 642.62060547 C718.91299488 640.68371438 715.73979519 638.77645175 712.5625 636.875 C711.66990479 636.34024048 711.66990479 636.34024048 710.75927734 635.79467773 C708.04106064 634.16712126 705.32155895 632.54173142 702.60107422 630.91796875 C696.70418652 627.39771605 690.81469426 623.86554721 684.9375 620.3125 C684.19226074 619.86197266 683.44702148 619.41144531 682.67919922 618.94726562 C669.79708545 611.12504269 657.95334615 602.67126059 646.9375 592.3125 C646.34710937 591.7865625 645.75671875 591.260625 645.1484375 590.71875 C629.7598163 576.42410661 619.91233632 556.38243852 611.9375 537.3125 C611.62425781 536.57354492 611.31101562 535.83458984 610.98828125 535.07324219 C602.41149275 514.52078502 597.07932619 491.65026411 594.24853516 469.59301758 C593.8667735 466.79393155 593.41475728 464.00831123 592.96875 461.21875 C588.24049783 430.59106616 587.4028345 399.73450756 590.6640625 368.91259766 C590.92115849 366.46789029 591.15184385 364.02222109 591.375 361.57421875 C592.47964319 350.00869233 594.56980262 338.68038868 596.9375 327.3125 C597.16179688 326.19101562 597.38609375 325.06953125 597.6171875 323.9140625 C602.62737536 301.33729006 615.22809358 281.13606704 634.8125 268.5 C637.16019058 267.05376096 639.53872014 265.67198647 641.9375 264.3125 C643.02546875 263.68601562 644.1134375 263.05953125 645.234375 262.4140625 C678.00953755 244.79548921 718.49044622 244.49022216 753.52392578 254.91308594 C766.29968562 258.88690629 778.30604252 264.21844212 790.15820312 270.38818359 C791.70880587 271.19369704 793.26778899 271.98303756 794.828125 272.76953125 C807.4946605 279.34930344 819.16432155 287.99836619 829.9375 297.3125 C830.68386719 297.94800781 831.43023438 298.58351563 832.19921875 299.23828125 C845.13384542 310.54784447 857.57861983 322.74151449 867.71826172 336.64453125 C868.95053898 338.33033787 870.20956555 339.99344705 871.47265625 341.65625 C878.2358635 350.68905106 883.74921397 360.30450655 888.9375 370.3125 C889.30117676 371.01246094 889.66485352 371.71242188 890.03955078 372.43359375 C898.06270779 388.10226031 904.00899451 404.93040291 906.9375 422.3125 C907.10523926 423.25109863 907.27297852 424.18969727 907.44580078 425.15673828 C908.75203366 432.88866333 909.25578578 440.35257465 909.1875 448.1875 C909.17517334 449.95420044 909.17517334 449.95420044 909.16259766 451.7565918 C908.75182378 484.52353776 903.1698873 517.63432001 894.9375 549.3125 C894.73302246 550.12396484 894.52854492 550.93542969 894.31787109 551.77148438 C888.11466174 576.1305542 875.34481959 594.50571854 857.9375 612.3125 C857.32406738 612.9410791 856.71063477 613.5696582 856.07861328 614.21728516 C854.12178959 616.21429406 852.15713647 618.20312994 850.1875 620.1875 C849.58574951 620.79408447 848.98399902 621.40066895 848.36401367 622.02563477 C845.3733492 625.00485171 842.33074706 627.87935601 839.140625 630.64453125 C834.10986133 635.0053385 829.24344887 639.51813476 824.4375 644.125 C823.5196875 644.96353516 822.601875 645.80207031 821.65625 646.66601562 C816.90386059 651.10817744 816.90386059 651.10817744 814.3125 656.89819336 C814.28117728 659.45907042 814.51222368 661.78938586 814.9375 664.3125 C815.081875 665.60027344 815.22625 666.88804687 815.375 668.21484375 C815.46571777 668.8586499 815.55643555 669.50245605 815.64990234 670.16577148 C819.18321613 695.77179849 818.16062852 723.29414426 812.44262695 748.4934082 C811.96588682 750.51621626 811.96588682 750.51621626 811.9375 753.3125 C813.49001863 755.47249792 813.49001863 755.47249792 816 757 C817.39412109 758.01513672 817.39412109 758.01513672 818.81640625 759.05078125 C819.84636719 759.79714844 820.87632813 760.54351563 821.9375 761.3125 C857.15121763 789.17305621 882.12498025 822.91698066 889.5 867.73046875 C890.28904981 874.53612412 890.22594168 881.40731666 890.25 888.25 C890.25542313 889.44577667 890.25542313 889.44577667 890.26095581 890.66571045 C890.29400464 909.33579027 888.90795908 927.90395036 887.44848633 946.50756836 C885.53964078 970.97129256 884.72354792 995.40099173 884.75 1019.9375 C884.75060425 1020.99512543 884.7512085 1022.05275085 884.75183105 1023.14242554 C884.77621274 1038.95082823 885.0416392 1054.59952327 886.9375 1070.3125 C887.06640625 1071.42173828 887.1953125 1072.53097656 887.328125 1073.67382812 C889.34424437 1090.5401601 892.55759451 1106.90626358 896.9375 1123.3125 C897.24856689 1124.50407715 897.24856689 1124.50407715 897.56591797 1125.71972656 C906.18725671 1158.43917868 921.66923402 1189.6187907 944.9375 1214.3125 C945.56011719 1214.99957031 946.18273438 1215.68664063 946.82421875 1216.39453125 C950.59184714 1220.3991174 954.69996332 1223.86852828 959.125 1227.125 C960.10855469 1227.85332031 961.09210938 1228.58164063 962.10546875 1229.33203125 C972.34718857 1235.36028544 986.16830209 1235.23874558 997.75 1236.3125 C1013.15590303 1237.75015997 1028.26134931 1239.65982791 1043.1875 1243.9375 C1044.05810059 1244.18693359 1044.92870117 1244.43636719 1045.82568359 1244.69335938 C1075.39831241 1253.56993754 1100.82257438 1271.19455873 1122.9375 1292.3125 C1123.59234375 1292.91449219 1124.2471875 1293.51648437 1124.921875 1294.13671875 C1130.98434836 1299.86719952 1135.91952492 1306.67701627 1140.9375 1313.3125 C1141.57945313 1314.15941406 1142.22140625 1315.00632812 1142.8828125 1315.87890625 C1158.86149718 1337.84030775 1170.18480336 1364.40855175 1173.9375 1391.3125 C1174.12183594 1392.60542969 1174.30617188 1393.89835937 1174.49609375 1395.23046875 C1175.18289139 1401.67843146 1175.1235116 1408.16196928 1175.12280273 1414.63891602 C1175.12497157 1416.84606752 1175.14313184 1419.05270324 1175.16210938 1421.25976562 C1175.3269007 1462.39903056 1160.00410013 1502.02076559 1134.9375 1534.3125 C1133.84501953 1535.74335938 1133.84501953 1535.74335938 1132.73046875 1537.203125 C1118.71980403 1554.98289248 1101.97776792 1567.74258369 1082.7578125 1579.4296875 C1081.93555176 1579.93910889 1081.11329102 1580.44853027 1080.26611328 1580.97338867 C1077.9375 1582.3125 1077.9375 1582.3125 1075.82373047 1583.14575195 C1073.61094556 1583.94844003 1073.61094556 1583.94844003 1070.9375 1586.3125 C1069.59873786 1590.38767624 1069.22977822 1594.49500862 1068.8125 1598.75 C1068.50982772 1601.11586138 1068.1974324 1603.48050056 1067.875 1605.84375 C1067.72160156 1606.97039062 1067.56820313 1608.09703125 1067.41015625 1609.2578125 C1065.50920882 1621.54327437 1059.41419865 1630.61423938 1049.5234375 1638.15234375 C1047.05440846 1639.73268318 1044.58353773 1641.05155827 1041.9375 1642.3125 C1040.99648437 1642.76238281 1040.05546875 1643.21226563 1039.0859375 1643.67578125 C1019.46341739 1652.09607785 997.71253328 1650.7870445 976.81469727 1650.70361328 C972.50173984 1650.68656281 968.18933915 1650.69665798 963.87640095 1650.71391869 C908.09062689 1650.90417696 908.09062689 1650.90417696 894.06640625 1637.5859375 C893.36386719 1636.83570313 892.66132812 1636.08546875 891.9375 1635.3125 C893.38671264 1630.27142163 895.5563948 1626.16094958 898.3125 1621.75 C898.74731689 1621.05398682 899.18213379 1620.35797363 899.63012695 1619.64086914 C904.28902266 1612.42159781 909.91252162 1606.39781435 915.9375 1600.3125 C916.53949219 1599.64992188 917.14148437 1598.98734375 917.76171875 1598.3046875 C925.22431705 1590.22177247 935.89786678 1582.76934652 945.9375 1578.3125 C946.5975 1578.3125 947.2575 1578.3125 947.9375 1578.3125 C942.24376522 1560.76785212 932.08418833 1545.06665515 922.5 1529.4375 C888.0620809 1473.20164614 883.86299474 1427.73206728 891.57312012 1363.37390137 C892.19001466 1358.19095388 892.78566607 1353.00556595 893.3828125 1347.8203125 C894.05284313 1342.00904877 894.72481069 1336.19807975 895.4128418 1330.38891602 C895.56684952 1329.08620255 895.56684952 1329.08620255 895.72396851 1327.75717163 C895.91593525 1326.13638565 896.1088535 1324.51571198 896.30288696 1322.89517212 C896.77014965 1319.11418291 896.77014965 1319.11418291 896.9375 1315.3125 C895.54046978 1314.02793565 895.54046978 1314.02793565 893.66796875 1312.765625 C892.59712036 1312.00415161 892.59712036 1312.00415161 891.50463867 1311.22729492 C890.71935791 1310.6779126 889.93407715 1310.12853027 889.125 1309.5625 C887.45774201 1308.37713335 885.79109411 1307.19090823 884.125 1306.00390625 C883.26261719 1305.3917627 882.40023438 1304.77961914 881.51171875 1304.14892578 C857.29872212 1286.87557974 833.78854304 1268.61310362 810.75927734 1249.79785156 C809.12080105 1248.46195103 807.47675952 1247.13288316 805.83203125 1245.8046875 C800.49907818 1241.48717683 795.33104845 1237.03795321 790.2578125 1232.41796875 C788.23595816 1230.58332315 786.19071478 1228.78481214 784.125 1227 C774.08463879 1218.2048017 764.51002109 1208.98739386 755.0625 1199.5625 C754.56458954 1199.06717773 754.06667908 1198.57185547 753.55368042 1198.06152344 C747.79401741 1192.32546804 742.20489241 1186.50684521 736.9375 1180.3125 C735.9768029 1179.21739491 735.01461526 1178.12359522 734.05078125 1177.03125 C720.44219556 1161.45252697 708.6333621 1144.47452506 696.61328125 1127.6640625 C679.23829916 1103.40881309 661.0426676 1080.21591816 636.9375 1062.3125 C636.38513672 1061.89403809 635.83277344 1061.47557617 635.26367188 1061.04443359 C614.37835755 1045.24482893 589.34168968 1031.02124095 563.9375 1024.3125 C563.04160156 1024.07144531 562.14570312 1023.83039062 561.22265625 1023.58203125 C543.67627955 1019.65058745 526.13212468 1022.3252561 510.66796875 1031.5078125 C500.20868443 1038.42081587 491.33496841 1046.65272738 482.5 1055.5 C481.79126236 1056.20962891 481.79126236 1056.20962891 481.06820679 1056.93359375 C475.47565985 1062.55301682 470.09050527 1068.28895505 464.9375 1074.3125 C461.95670687 1077.66332262 458.94637718 1080.98689891 455.9375 1084.3125 C455.04800014 1085.30843574 454.15868249 1086.30453426 453.26953125 1087.30078125 C402.66947523 1143.69576556 321.90219681 1156.57633898 249.9375 1162.3125 C249.06480469 1162.38452637 248.19210937 1162.45655273 247.29296875 1162.53076172 C211.85466783 1165.33753471 175.92136121 1163.25681752 140.9375 1157.3125 C139.52283447 1157.07660156 139.52283447 1157.07660156 138.07958984 1156.8359375 C121.00924427 1153.94753345 104.49001815 1149.32807908 87.9375 1144.3125 C87.1800849 1156.83689969 86.76826807 1169.36983144 86.65039062 1181.91607666 C86.63356981 1183.42085222 86.60973367 1184.92556699 86.57861328 1186.43011475 C86.20726183 1199.15849897 86.20726183 1199.15849897 92.35620117 1209.828125 C93.9088143 1211.27080768 95.51271677 1212.57681825 97.1875 1213.875 C98.35575103 1214.82256875 99.52372077 1215.77048441 100.69140625 1216.71875 C101.53276123 1217.38970703 101.53276123 1217.38970703 102.39111328 1218.07421875 C114.16064117 1227.49876019 123.92264536 1238.29704724 132.9375 1250.3125 C133.36562988 1250.87453125 133.79375977 1251.4365625 134.23486328 1252.015625 C173.86779421 1304.22922851 185.9484807 1372.2583669 178.9375 1436.3125 C176.76300024 1451.96889827 172.67071048 1467.25370493 167.9375 1482.3125 C167.7204541 1483.02212891 167.5034082 1483.73175781 167.27978516 1484.46289062 C161.00949558 1504.72445664 151.21326484 1524.05014714 138.9375 1541.3125 C138.53934082 1541.87743164 138.14118164 1542.44236328 137.73095703 1543.02441406 C133.20124208 1549.40210077 128.29653738 1555.32546297 122.9921875 1561.0703125 C121.22060243 1563.00356313 119.53967659 1564.97539334 117.875 1567 C103.28811504 1584.04445796 80.1192021 1598.25193263 58.9375 1605.3125 C58.99550781 1606.61703125 59.05351563 1607.9215625 59.11328125 1609.265625 C59.53214707 1622.55984044 58.57595195 1632.16456915 49.6875 1642.6875 C36.44284336 1656.39417954 20.49766522 1659.29866875 2.15454102 1659.6550293 C-13.52501776 1659.78754384 -28.91105465 1658.68676144 -44.5 1657 C-45.49565979 1656.89330994 -46.49131958 1656.78661987 -47.51715088 1656.67669678 C-57.23952409 1655.61995631 -66.95066533 1654.44735034 -76.609375 1652.90625 C-77.28483871 1652.80869919 -77.96030243 1652.71114838 -78.65623474 1652.61064148 C-85.53229414 1651.43376407 -89.86178164 1647.68490633 -94.0625 1642.3125 C-98.16023465 1635.93457429 -99.90684761 1629.81649076 -99.0625 1622.3125 C-94.75587288 1607.76840498 -82.82493014 1599.08203836 -70.1796875 1591.921875 C-65.27250391 1589.38834162 -60.21373868 1587.29444822 -55.0625 1585.3125 C-56.14724609 1584.27029297 -56.14724609 1584.27029297 -57.25390625 1583.20703125 C-73.87061869 1566.53199409 -85.35999252 1542.89978797 -94.0625 1521.3125 C-94.40474609 1520.47106445 -94.74699219 1519.62962891 -95.09960938 1518.76269531 C-120.01230449 1456.57443855 -119.23088585 1386.15729313 -93.15087891 1324.45605469 C-85.21865926 1306.22099989 -75.8177403 1289.35033271 -64.0625 1273.3125 C-63.61132812 1272.69165527 -63.16015625 1272.07081055 -62.6953125 1271.43115234 C-57.48904544 1264.31000449 -51.81179784 1257.74365453 -45.8125 1251.29296875 C-34.35064556 1239.55305625 -34.35064556 1239.55305625 -29.6875 1224.3125 C-30.30876674 1210.98729681 -34.29460101 1197.47245176 -37.25 1184.5 C-37.64565369 1182.7531439 -38.04107595 1181.00623538 -38.4362793 1179.25927734 C-41.39589078 1166.19007081 -44.38574168 1153.12771373 -47.37573242 1140.06542969 C-50.8855164 1124.73073073 -50.8855164 1124.73073073 -52.5625 1117.25 C-52.80286987 1116.18773193 -52.80286987 1116.18773193 -53.0480957 1115.10400391 C-54.0625 1110.54831009 -54.0625 1110.54831009 -54.0625 1108.3125 C-55.31160156 1108.20679688 -56.56070313 1108.10109375 -57.84765625 1107.9921875 C-99.03105473 1103.35112602 -138.85200755 1078.69785115 -168.8515625 1051.30078125 C-170.61330083 1049.7164618 -172.39338787 1048.21859002 -174.25 1046.75 C-177.17828078 1044.21215666 -179.60030834 1041.52720196 -182.1015625 1038.578125 C-183.45523918 1037.01411608 -184.84904509 1035.48426524 -186.2734375 1033.984375 C-199.14539239 1020.40425431 -209.26491315 1004.76896071 -218.0625 988.3125 C-218.6495874 987.22243652 -218.6495874 987.22243652 -219.24853516 986.11035156 C-229.15259151 967.39940743 -236.01118054 946.56998194 -240.0625 925.8125 C-240.24586914 924.8733374 -240.42923828 923.9341748 -240.61816406 922.96655273 C-243.77464701 905.07525466 -244.44302392 886.93953716 -244.375 868.8125 C-244.37350952 867.8183609 -244.37201904 866.8242218 -244.3704834 865.79995728 C-244.32494578 848.79250539 -243.40571811 832.17398133 -241.0625 815.3125 C-240.92859863 814.2920459 -240.79469727 813.2715918 -240.65673828 812.22021484 C-233.45869268 758.23923527 -218.8689988 692.1189988 -179.0625 652.3125 C-179.2003432 649.40580643 -179.90645414 648.45455344 -182.06640625 646.48828125 C-183.33291016 645.56595703 -183.33291016 645.56595703 -184.625 644.625 C-193.40752133 637.84419294 -199.51042801 629.86783903 -205.0625 620.3125 C-205.83400391 619.02859375 -205.83400391 619.02859375 -206.62109375 617.71875 C-218.60501302 596.05431412 -221.25475699 566.75257364 -215.4375 542.6875 C-214.70475236 540.21096617 -213.91497343 537.75041467 -213.0625 535.3125 C-212.85351074 534.66829102 -212.64452148 534.02408203 -212.42919922 533.36035156 C-199.59384374 493.8063048 -170.29608869 466.74461769 -138.0625 442.3125 C-138.96790527 442.18198242 -139.87331055 442.05146484 -140.80615234 441.91699219 C-186.73768737 435.25111177 -231.20283383 426.07812502 -260.96875 386.796875 C-269.80514749 373.85232781 -274.30984627 358.96759958 -273.0625 343.3125 C-271.38366817 337.13183251 -266.35280002 333.43029437 -261.0625 330.3125 C-251.05001576 325.07930824 -240.62034777 322.43315291 -229.68457031 319.91699219 C-227.11709885 319.32508722 -224.554215 318.71656794 -221.9921875 318.1015625 C-218.53264366 317.27133832 -215.0717367 316.44729999 -211.609375 315.62890625 C-207.72165411 314.70860764 -203.83664077 313.77772869 -199.953125 312.83984375 C-189.7322598 310.37213757 -179.50681093 307.93928947 -169.25 305.625 C-166.61721699 305.02760285 -163.98458036 304.42956758 -161.35205078 303.83105469 C-159.33858517 303.37502985 -157.32369708 302.92529519 -155.30859375 302.4765625 C-148.60441496 300.91589009 -142.26086888 299.2110218 -137.0625 294.5 C-135.15696958 290.33165221 -135.4791214 286.96666876 -136.96484375 282.75390625 C-137.32707031 281.80386719 -137.68929687 280.85382813 -138.0625 279.875 C-141.29298863 270.72386495 -141.83581722 259.43293915 -138.09375 250.3203125 C-133.25055679 240.89076209 -126.5298371 234.55764003 -118.0625 228.3125 C-118.93390625 227.49910156 -119.8053125 226.68570313 -120.703125 225.84765625 C-146.02039373 201.71467468 -161.39870221 169.33528594 -162.41625977 134.18066406 C-162.7322277 98.95205533 -148.10547308 67.05619889 -123.9375 41.8125 C-90.88591698 9.67394413 -44.65159093 -0.16204847 0 0 Z " fill="#282627" transform="translate(549.0625,193.6875)"/>
<path d="M0 0 C-0.72200844 1.13297264 -0.72200844 1.13297264 -1.45860291 2.28883362 C-2.08964432 3.27963425 -2.72068573 4.27043488 -3.37084961 5.29125977 C-3.99656357 6.27344986 -4.62227753 7.25563995 -5.26695251 8.26759338 C-7.08296121 11.13080065 -8.87021705 13.99920193 -10.5625 16.9375 C-11.07941406 17.81277344 -11.59632812 18.68804688 -12.12890625 19.58984375 C-13.26520354 21.95696312 -13.26520354 21.95696312 -12.2734375 24.1953125 C-7.47020922 31.00234154 1.17495585 34.35182675 9.09326172 35.88110352 C26.14571103 38.66555434 43.29005968 38.46014075 60.51391602 38.39111328 C64.83031929 38.37398146 69.14616938 38.38420243 73.46255398 38.4014349 C113.60135396 39.35359486 113.60135396 39.35359486 148.44140625 21.74609375 C153.55710484 16.3607043 157.10823552 10.8297955 160 4 C213.31718709 3.34802353 213.31718709 3.34802353 227.390625 16.1796875 C233.61755404 22.83219802 235.52588756 28.24272752 235.3046875 37.32421875 C234.55866663 43.87581232 230.57100616 48.13776672 225.59375 52.1953125 C205.64204527 66.07737212 179.40933527 72.71098672 156 78 C155.15518066 78.19287598 154.31036133 78.38575195 153.43994141 78.58447266 C131.4049889 83.49301617 108.54703908 85.47605641 86 86 C85.11119141 86.02191406 84.22238281 86.04382812 83.30664062 86.06640625 C33.05170853 87.10976124 -16.87104008 80.04647866 -66.44996262 72.72494507 C-118.48226039 65.04319052 -170.4414569 57.91538567 -223 55 C-223.85621948 54.95121704 -224.71243896 54.90243408 -225.59460449 54.85217285 C-308.86015236 50.13095051 -392.60813221 51.72283832 -567 53 C-568.05658813 53.02344482 -568.05658813 53.02344482 -569.13452148 53.04736328 C-650.78309994 54.86116543 -732.2282198 58.92100549 -857.16015625 70.45703125 C-861.6275543 70.88853984 -866.09498299 71.31972468 -870.5625 71.75 C-871.61462677 71.85138275 -872.66675354 71.9527655 -873.75076294 72.05722046 C-888.96580564 73.5153626 -904.18590571 74.7428421 -919.4375 75.75 C-920.33300568 75.80925659 -921.22851135 75.86851318 -922.15115356 75.92956543 C-927.25897912 76.26315423 -932.36769782 76.57323725 -937.47842407 76.85897827 C-939.15073792 76.95250414 -940.82292289 77.04836578 -942.4949646 77.14663696 C-958.51887518 78.07410275 -974.53694365 78.18762238 -990.58227539 78.18530273 C-993.46970948 78.18522189 -996.35698346 78.19211724 -999.24438477 78.20581055 C-1025.15147538 78.32649062 -1050.95890889 77.4921686 -1076.6875 74.1875 C-1077.3532605 74.10418427 -1078.019021 74.02086853 -1078.70495605 73.93502808 C-1105.60913206 70.55840815 -1132.23950512 65.56254073 -1158 57 C-1157.96484375 54.75 -1157.96484375 54.75 -1157 52 C-1154.49911985 50.41099312 -1152.24156942 49.19718633 -1149.5625 48 C-1148.18868143 47.35442336 -1146.8149853 46.7085861 -1145.44140625 46.0625 C-1144.71953125 45.7325 -1143.99765625 45.4025 -1143.25390625 45.0625 C-1140.91444944 43.95967114 -1138.63785051 42.76391338 -1136.34765625 41.5625 C-1130.08019526 38.41825262 -1123.52274292 36.19293049 -1116.875 34 C-1116.22203949 33.78311523 -1115.56907898 33.56623047 -1114.89633179 33.34277344 C-1106.13497797 30.45084921 -1097.35027972 27.89480072 -1088.3125 26 C-1087.44415527 25.81695313 -1086.57581055 25.63390625 -1085.68115234 25.4453125 C-1070.17293836 22.45133764 -1054.61307637 21.68749555 -1038.85424805 21.79418945 C-1036.04011062 21.81264685 -1033.22630164 21.81469667 -1030.41210938 21.81445312 C-1007.29446501 21.85367667 -1007.29446501 21.85367667 -1003 23 C-1001.51628664 24.86528585 -1000.83380732 26.5055439 -1000 28.734375 C-997.88811755 33.51910867 -994.4029146 36.33640197 -990 39 C-987.47107629 39.67686532 -985.14783142 40.17782937 -982.578125 40.5625 C-981.84404922 40.68152176 -981.10997345 40.80054352 -980.35365295 40.923172 C-970.42165959 42.48136543 -960.43195757 43.61774447 -950.4375 44.6875 C-949.41473969 44.79772491 -948.39197937 44.90794983 -947.33822632 45.02151489 C-934.16090576 46.41831831 -921.06909263 47.47911909 -907.8125 47.4375 C-905.94839478 47.43399536 -905.94839478 47.43399536 -904.04663086 47.43041992 C-893.36201946 47.25070368 -882.97186886 45.98123578 -873 42 C-872.34644531 41.74734375 -871.69289063 41.4946875 -871.01953125 41.234375 C-862.139726 37.33505932 -855.74100818 31.21352656 -852.05053711 22.28759766 C-848.94191799 16.40023209 -848.94191799 16.40023209 -845.17068481 14.79779053 C-841.50439558 14.32653775 -837.93880544 14.27230864 -834.25390625 14.3359375 C-832.80834497 14.31136441 -831.36289018 14.27972481 -829.9176178 14.24179077 C-826.70375392 14.16337674 -823.49134634 14.11682719 -820.27667236 14.08776855 C-814.7133088 14.01804441 -809.16498431 13.7645432 -803.60888672 13.48144531 C-802.61540694 13.43095976 -801.62192717 13.38047421 -800.59834194 13.32845879 C-798.53165812 13.22297863 -796.46498986 13.11719342 -794.39833641 13.01111984 C-788.9249318 12.73679162 -783.45017748 12.49332375 -777.9753418 12.24951172 C-776.84222596 12.1988965 -775.70911013 12.14828129 -774.54165745 12.09613228 C-771.006961 11.93857309 -767.47223323 11.78173177 -763.9375 11.625 C-762.73204655 11.5713755 -761.52659309 11.51775101 -760.28461075 11.46250153 C-641.86818074 6.19768348 -523.39969448 2.61024873 0 0 Z " fill="#DEDEDE" transform="translate(1455,1805)"/>
<path d="M0 0 C7.425 0.99 7.425 0.99 15 2 C14.67 3.32 14.34 4.64 14 6 C11.0796826 7.123199 10.03281675 7.0116226 7 5.9375 C4.08890623 4.69307865 4.08890623 4.69307865 1.625 5.875 C1.08875 6.24625 0.5525 6.6175 0 7 C-1 4 -1 4 0 0 Z " fill="#2E2D2D" transform="translate(1564,1432)"/>
<path d="M0 0 C4.54109672 4.26587874 8.24735246 9.03612328 12 14 C11.34 14.66 10.68 15.32 10 16 C5.40337449 13.76380381 4.13445565 11.54731855 2 7 C-0.06167261 4.68581709 -0.06167261 4.68581709 -2 3 C-1.34 2.01 -0.68 1.02 0 0 Z " fill="#2E2D2D" transform="translate(676,1438)"/>
<path d="M0 0 C4.24404412 3.88026891 7.10917547 8.04254346 10 13 C8.02 13.99 8.02 13.99 6 15 C6.33 13.68 6.66 12.36 7 11 C6.01 11 5.02 11 4 11 C3.67 10.34 3.34 9.68 3 9 C2.01 8.67 1.02 8.34 0 8 C-0.79953138 4.71303767 -1.09658936 3.28976808 0 0 Z " fill="#2F2D2E" transform="translate(1411,524)"/>
<path d="M0 0 C1.32 0.33 2.64 0.66 4 1 C1.525 5.455 1.525 5.455 -1 10 C-1.99 10 -2.98 10 -4 10 C-5 8 -5 8 -5 5 C-3.72617782 2.45235564 -2.43334567 1.4600074 0 0 Z " fill="#2F2E2F" transform="translate(1694,1706)"/>
<path d="M0 0 C1.485 0.99 1.485 0.99 3 2 C3.33 1.34 3.66 0.68 4 0 C5.32 0.66 6.64 1.32 8 2 C7.01 2.495 7.01 2.495 6 3 C6.99 3.66 7.98 4.32 9 5 C8.34 6.32 7.68 7.64 7 9 C5.8225266 8.26708288 4.65823146 7.51296199 3.5 6.75 C2.52546875 6.12351562 2.52546875 6.12351562 1.53125 5.484375 C1.0259375 4.99453125 0.520625 4.5046875 0 4 C0 2.68 0 1.36 0 0 Z " fill="#2E2C2D" transform="translate(1333,1417)"/>
<path d="M0 0 C0 3.86695678 -1.41909971 6.5088452 -3 10 C-4.98 10 -6.96 10 -9 10 C-6.43571997 5.82117329 -3.98069267 2.87494471 0 0 Z " fill="#353535" transform="translate(286,525)"/>
<path d="M0 0 C0.66 0.66 1.32 1.32 2 2 C1.625 4.625 1.625 4.625 1 7 C0.01 7.33 -0.98 7.66 -2 8 C-2.33 8.99 -2.66 9.98 -3 11 C-3.99 10.34 -4.98 9.68 -6 9 C-4.02 6.03 -2.04 3.06 0 0 Z " fill="#312F30" transform="translate(359,859)"/>
<path d="M0 0 C0.66 0 1.32 0 2 0 C0.34832443 3.5786304 -1.78286492 6.74820188 -4 10 C-4.66 9.34 -5.32 8.68 -6 8 C-5.34 5.69 -4.68 3.38 -4 1 C-3.01 1 -2.02 1 -1 1 C-0.67 0.67 -0.34 0.34 0 0 Z " fill="#2F2F2F" transform="translate(687,1732)"/>
<path d="M0 0 C3.465 1.98 3.465 1.98 7 4 C3.375 7 3.375 7 0 7 C-0.93423645 3.98968256 -1.04449911 3.13349732 0 0 Z " fill="#2E2E2E" transform="translate(1361,478)"/>
<path d="M0 0 C1.875 0.5625 1.875 0.5625 4 2 C5.25 5.625 5.25 5.625 6 9 C4.0625 8.6875 4.0625 8.6875 2 8 C1.67 7.01 1.34 6.02 1 5 C0.01 5 -0.98 5 -2 5 C-2 4.34 -2 3.68 -2 3 C-1.34 3 -0.68 3 0 3 C0 2.01 0 1.02 0 0 Z " fill="#2D2D2D" transform="translate(1442,579)"/>
<path d="M0 0 C0.99 0.33 1.98 0.66 3 1 C4.6875 4.5625 4.6875 4.5625 6 8 C3.03 7.505 3.03 7.505 0 7 C-0.38133299 5.0085944 -0.71325582 3.00720923 -1 1 C-0.67 0.67 -0.34 0.34 0 0 Z " fill="#303030" transform="translate(1018,791)"/>
<path d="M0 0 C0.66 0.66 1.32 1.32 2 2 C1.74739753 5.78903708 -0.27849443 7.54186593 -3 10 C-3.75 8.375 -3.75 8.375 -4 6 C-2.0625 2.75 -2.0625 2.75 0 0 Z " fill="#333333" transform="translate(409,255)"/>
<path d="M0 0 C0.66 0.33 1.32 0.66 2 1 C1.3125 3.875 1.3125 3.875 0 7 C-2.5 8.3125 -2.5 8.3125 -5 9 C-5.99 9.495 -5.99 9.495 -7 10 C-5.33248852 6.05860922 -2.77289351 3.2107188 0 0 Z " fill="#333333" transform="translate(1460,1799)"/>
<path d="M0 0 C0.99 0.33 1.98 0.66 3 1 C3 1.99 3 2.98 3 4 C3.66 4.33 4.32 4.66 5 5 C4.01 5.99 3.02 6.98 2 8 C0.4375 6.8125 0.4375 6.8125 -1 5 C-0.6875 2.3125 -0.6875 2.3125 0 0 Z " fill="#302E2F" transform="translate(1354,1433)"/>
<path d="M0 0 C0.99 1.32 1.98 2.64 3 4 C2.34 4 1.68 4 1 4 C0.34 5.65 -0.32 7.3 -1 9 C-2.32 8.34 -3.64 7.68 -5 7 C-3.35 4.69 -1.7 2.38 0 0 Z " fill="#D5D5D5" transform="translate(603,1829)"/>
<path d="M0 0 C0.99 0.33 1.98 0.66 3 1 C2.67 2.32 2.34 3.64 2 5 C1.34 5 0.68 5 0 5 C-0.33 5.99 -0.66 6.98 -1 8 C-1.99 6.68 -2.98 5.36 -4 4 C-2.68 2.68 -1.36 1.36 0 0 Z " fill="#303030" transform="translate(462,1797)"/>
<path d="M0 0 C1.65 1.65 3.3 3.3 5 5 C4.34 5.66 3.68 6.32 3 7 C0.525 6.01 0.525 6.01 -2 5 C-1.34 3.35 -0.68 1.7 0 0 Z " fill="#323031" transform="translate(796,328)"/>
<path d="M0 0 C1.32 0.66 2.64 1.32 4 2 C1.36 3.65 -1.28 5.3 -4 7 C-4 5.68 -4 4.36 -4 3 C-2 1.25 -2 1.25 0 0 Z " fill="#2F2D2E" transform="translate(969,1305)"/>
<path d="M0 0 C2.97 1.98 2.97 1.98 6 4 C5.01 5.32 4.02 6.64 3 8 C1.68 6.02 0.36 4.04 -1 2 C-0.67 1.34 -0.34 0.68 0 0 Z " fill="#2F2F2F" transform="translate(1364,950)"/>
<path d="M0 0 C1.65 0.33 3.3 0.66 5 1 C3.515 3.475 3.515 3.475 2 6 C1.01 5.34 0.02 4.68 -1 4 C-0.67 2.68 -0.34 1.36 0 0 Z " fill="#2D2D2D" transform="translate(1418,786)"/>
<path d="M0 0 C3.465 1.98 3.465 1.98 7 4 C6.01 4.495 6.01 4.495 5 5 C4.67 5.66 4.34 6.32 4 7 C1 5 1 5 0.3125 2.375 C0.209375 1.59125 0.10625 0.8075 0 0 Z " fill="#2F2E2F" transform="translate(938,694)"/>
<path d="M0 0 C2.64 0.66 5.28 1.32 8 2 C8 2.99 8 3.98 8 5 C7.01 5.33 6.02 5.66 5 6 C3.35 4.02 1.7 2.04 0 0 Z " fill="#363636" transform="translate(1198,787)"/>
<path d="M0 0 C0 2.31 0 4.62 0 7 C-1.7074998 5.71937515 -3.37373596 4.38232443 -5 3 C-5 2.34 -5 1.68 -5 1 C-3 0 -3 0 0 0 Z " fill="#313131" transform="translate(431,414)"/>
<path d="M0 0 C1.98 1.65 3.96 3.3 6 5 C5.34 5.66 4.68 6.32 4 7 C2.68 6.34 1.36 5.68 0 5 C0 3.35 0 1.7 0 0 Z " fill="#393738" transform="translate(1673,1488)"/>
<path d="M0 0 C1.65 0.99 3.3 1.98 5 3 C4.67 4.65 4.34 6.3 4 8 C0.67098753 5.78065836 0.24976756 4.65316671 -1 1 C-0.67 0.67 -0.34 0.34 0 0 Z " fill="#2E2E2E" transform="translate(1372,486)"/>
<path d="M0 0 C0.66 0.33 1.32 0.66 2 1 C1.79375 1.78375 1.5875 2.5675 1.375 3.375 C1.25125 4.24125 1.1275 5.1075 1 6 C1.66 6.66 2.32 7.32 3 8 C1.125 7.6875 1.125 7.6875 -1 7 C-3 4 -3 4 -3 1 C-2.01 0.67 -1.02 0.34 0 0 Z " fill="#2F2D2E" transform="translate(412,393)"/>
<path d="M0 0 C0.66 0 1.32 0 2 0 C2 0.66 2 1.32 2 2 C2.66 2.33 3.32 2.66 4 3 C2.35 4.65 0.7 6.3 -1 8 C-1 7.01 -1 6.02 -1 5 C-0.34 5 0.32 5 1 5 C1 4.34 1 3.68 1 3 C0.34 3 -0.32 3 -1 3 C-0.67 2.01 -0.34 1.02 0 0 Z " fill="#363435" transform="translate(1676,1730)"/>
<path d="M0 0 C-0.33 1.32 -0.66 2.64 -1 4 C-4 4 -4 4 -5.6875 2.5 C-6.120625 2.005 -6.55375 1.51 -7 1 C-4.53721199 -0.231394 -2.7204945 -0.07159196 0 0 Z " fill="#313131" transform="translate(398,1253)"/>
<path d="M0 0 C0.33 0 0.66 0 1 0 C1 2.31 1 4.62 1 7 C0.34 7 -0.32 7 -1 7 C-1.33 7.66 -1.66 8.32 -2 9 C-2.66 7.68 -3.32 6.36 -4 5 C-3.01 4.34 -2.02 3.68 -1 3 C-0.67 2.01 -0.34 1.02 0 0 Z " fill="#464546" transform="translate(1438,1066)"/>
<path d="M0 0 C0.99 0.33 1.98 0.66 3 1 C4.1875 4.0625 4.1875 4.0625 5 7 C3.35 6.67 1.7 6.34 0 6 C0 4 0 2 0 0 Z " fill="#323031" transform="translate(1034,821)"/>
<path d="M0 0 C0.99 1.32 1.98 2.64 3 4 C0.35261084 5.4606285 -0.89448334 6 -4 6 C-2.68 4.02 -1.36 2.04 0 0 Z " fill="#D6D6D6" transform="translate(1611,1817)"/>
<path d="M0 0 C1.98 0.495 1.98 0.495 4 1 C3.34 2.65 2.68 4.3 2 6 C1.01 5.34 0.02 4.68 -1 4 C-0.67 2.68 -0.34 1.36 0 0 Z " fill="#D5D5D5" transform="translate(1449,1806)"/>
<path d="M0 0 C0.66 0 1.32 0 2 0 C2.433125 0.9590625 2.433125 0.9590625 2.875 1.9375 C3.82823451 4.15206079 3.82823451 4.15206079 6 5 C4.02 5.99 4.02 5.99 2 7 C1.01 5.02 0.02 3.04 -1 1 C-0.67 0.67 -0.34 0.34 0 0 Z " fill="#363435" transform="translate(1473,1722)"/>
<path d="M0 0 C1.98 0.495 1.98 0.495 4 1 C4 1.99 4 2.98 4 4 C2.35 4.33 0.7 4.66 -1 5 C-0.67 3.35 -0.34 1.7 0 0 Z " fill="#2F2E2F" transform="translate(641,1405)"/>
<path d="M0 0 C2 2 2 2 2 5 C0.68 5.33 -0.64 5.66 -2 6 C-2.33 5.01 -2.66 4.02 -3 3 C-2.01 2.01 -1.02 1.02 0 0 Z " fill="#302F2F" transform="translate(341,893)"/>
<path d="M0 0 C0.66 0 1.32 0 2 0 C1.8125 2.375 1.8125 2.375 1 5 C-1.5625 6.3125 -1.5625 6.3125 -4 7 C-2.68 4.69 -1.36 2.38 0 0 Z " fill="#302F2F" transform="translate(484,1468)"/>
<path d="M0 0 C0.99 0.33 1.98 0.66 3 1 C1.63016497 4.16115776 1.0109362 4.9927092 -2 7 C-2 6.01 -2 5.02 -2 4 C-1.34 4 -0.68 4 0 4 C-0.33 3.01 -0.66 2.02 -1 1 C-0.67 0.67 -0.34 0.34 0 0 Z " fill="#3F3F3F" transform="translate(1412,795)"/>
</svg>
